<svg version="1.1" id="Layer_1" xmlns="http://www.w3.org/2000/svg" xmlns:xlink="http://www.w3.org/1999/xlink" x="0px" y="0px"
	 width="100%" viewBox="0 0 240 240" enable-background="new 0 0 240 240" xml:space="preserve">
<path fill="#FFFFFF" opacity="1.000000" stroke="none" 
	d="
M103.000000,1.000000 
	C113.687561,1.000000 124.375122,1.000000 135.851715,1.199305 
	C147.937958,3.522359 158.959885,6.389497 169.426239,11.402058 
	C215.172440,33.310917 240.783020,81.534546 233.571777,132.422302 
	C230.405685,154.764664 221.093140,174.396988 206.159561,191.260803 
	C203.082352,194.735748 203.342850,196.966629 206.577499,199.925552 
	C210.991333,203.963150 214.839462,208.636322 219.371017,212.522980 
	C223.352707,215.938019 222.344604,218.232086 219.106705,221.345764 
	C212.522491,227.677414 205.530701,233.636963 200.000000,241.000000 
	C200.000000,241.000000 199.500000,241.000000 199.003952,240.775742 
	C184.624878,226.631744 170.697830,212.755402 156.902237,198.749542 
	C154.604980,196.417297 152.740936,195.801956 149.527084,197.193390 
	C125.353394,207.659439 100.647171,208.170837 75.896873,199.723663 
	C19.906033,180.614151 -7.376748,114.608109 18.634972,61.413326 
	C34.313335,29.350578 60.977146,11.396480 94.867165,3.002777 
	C97.576721,2.331686 100.588409,2.895655 103.000000,1.000000 
M142.116852,96.453133 
	C150.307632,107.461418 151.485367,118.958908 144.342087,130.919220 
	C143.023071,133.127716 142.943527,134.812973 144.845108,136.649902 
	C149.396790,141.046814 153.936981,145.459778 158.349808,149.994705 
	C160.936325,152.652802 162.749664,151.945267 164.799881,149.323471 
	C175.923126,135.099304 180.473312,119.016655 176.133011,101.498878 
	C170.845490,80.158012 157.192520,65.713432 135.861282,59.736092 
	C115.486404,54.026733 97.373283,59.324825 81.807030,73.423485 
	C72.117996,82.199020 67.505936,93.125679 68.017319,106.324692 
	C68.660210,122.917801 76.680855,134.812454 91.122063,142.157944 
	C106.120026,149.786606 120.751076,147.793411 134.632446,138.654892 
	C138.244247,136.277145 138.729706,134.362534 135.248764,130.999344 
	C124.116211,120.243454 113.379974,109.078484 102.403389,98.159241 
	C99.615936,95.386345 99.489189,93.695274 103.108879,91.307373 
	C115.742493,82.972984 130.255203,84.543678 142.116852,96.453133 
M144.751099,177.909882 
	C149.497620,179.417938 154.194031,181.115067 159.002411,182.389832 
	C166.253998,184.312347 171.014084,180.309525 170.974442,172.763306 
	C170.942825,166.743683 166.789291,163.293747 163.119415,159.464783 
	C161.067001,157.323380 159.290543,157.435562 157.180893,159.412872 
	C152.050674,164.221329 146.063156,167.773773 139.804245,170.901489 
	C138.753601,171.426498 137.744583,172.063400 138.038498,174.029755 
	C139.855438,175.110809 141.955536,176.360321 144.751099,177.909882 
z"/>
</svg>